:SAMPLES-PER-SECOND 24
:FULLY-SPECIFIED
:DEGREES
251
root  12.3117 42.7403 47.3125 12.8601 -33.6866 -24.8995
RightUpLeg  -16.6777 -20.0228 -13.2206
RightLeg  92.7305 1.35665 -12.4926
RightFoot  31.9386 -1.39681 4.09932
RightToes  -2.08645e-008 3.77894e-005 6.81332e-007
Spine  -2.5546 3.58924 9.42
Spine1  2.63371 1.98767 6.2242
HEad  -14.9624 22.3573 -5.36318
LeftShoulder1  3.60998 -7.59474 -26.42
LeftArm  -8.48071 6.64325 -7.65036
LeftForeArm  163.902 -63.6753 -159.486
LeftHand  -0.0387925 -2.11042 0.78132
RightShoulder  3.79635 6.52357 31.9727
RightArm  -2.87707 -31.2939 22.6664
RightForeArm  13.0833 47.4839 11.2933
RightHand  -1.89766 4.76325 -21.7324
LeftUpLeg  -25.2832 14.8051 7.28163
LeftLeg  36.5106 16.7474 13.2364
LeftFoot  17.2553 0.155976 -1.03091
LeftToes  1.24767e-006 1.47042e-008 1.32732e-009
252
root  11.8878 41.8254 47.3008 11.5757 -23.5034 -26.0003
RightUpLeg  -24.6113 -11.0284 -19.6507
RightLeg  104.552 2.31319 -6.43784
RightFoot  19.8437 0.454169 -1.2192
RightToes  -2.08645e-008 3.77894e-005 6.81332e-007
Spine  0.213228 2.16119 7.10796
Spine1  1.59104 -0.115933 9.79795
HEad  -17.2741 19.6654 -4.98414
LeftShoulder1  3.27457 -7.17186 -24.4838
LeftArm  -16.024 -7.5594 -6.45545
LeftForeArm  154.863 -69.499 -152.021
LeftHand  -0.246055 -1.60714 4.22718
RightShoulder  3.63084 6.40992 30.7256
RightArm  -0.538938 -32.7142 19.2146
RightForeArm  3.86631 32.5703 6.77696
RightHand  -1.87362 5.11546 -20.7766
LeftUpLeg  -19.5396 18.2483 8.94375
LeftLeg  25.8562 12.0122 6.58696
LeftFoot  10.1465 -0.185934 0.76787
LeftToes  1.24767e-006 1.47042e-008 1.32732e-009
253
root  11.35 40.5385 47.3559 11.0005 -15.9515 -27.4495
RightUpLeg  -33.9623 -3.03662 -26.3696
RightLeg  109.328 2.77324 -6.02635
RightFoot  3.47299 0.703256 -5.09347
RightToes  -2.08645e-008 3.77894e-005 6.81332e-007
Spine  1.41556 1.25528 4.08073
Spine1  1.67732 -1.92261 14.8251
HEad  -20.356 18.9402 -3.9705
LeftShoulder1  3.0297 -6.87806 -22.9187
LeftArm  -23.5984 -21.5117 -4.00662
LeftForeArm  138.551 -75.6796 -136.27
LeftHand  -0.373996 -1.99674 6.07606
RightShoulder  3.63745 6.49966 30.4562
RightArm  -4.18044 -33.1827 16.6236
RightForeArm  8.41984 17.5634 6.86516
RightHand  -1.80511 5.869 -18.7607
LeftUpLeg  -15.9883 14.7457 11.3333
LeftLeg  22.2779 8.23915 3.96058
LeftFoot  -4.41007 -0.220137 4.33012
LeftToes  1.24767e-006 1.47042e-008 1.32732e-009
254
root  10.9306 39.4911 47.1378 6.48901 -10.987 -28.8803
RightUpLeg  -43.4354 0.349462 -30.5433
RightLeg  107.07 3.74673 -9.69424
RightFoot  -4.52801 0.36745 -6.71906
RightToes  -2.08645e-008 3.77894e-005 6.81332e-007
Spine  5.93932 0.853921 2.24186
Spine1  3.77671 -3.03264 18.3941
HEad  -25.087 19.4541 -2.42658
LeftShoulder1  3.11223 -7.15179 -22.9416
LeftArm  -32.0562 -34.9989 0.140142
LeftForeArm  116.444 -79.4939 -110.803
LeftHand  -0.389728 -3.16887 5.54066
RightShoulder  3.74288 6.63366 31.0236
RightArm  -17.2219 -33.2472 18.5728
RightForeArm  23.4201 3.65168 7.55845
RightHand  -1.77727 6.90743 -16.9807
LeftUpLeg  -13.409 4.28338 13.8369
LeftLeg  25.5201 13.1717 7.11375
LeftFoot  -12.7321 0.161354 7.01401
LeftToes  1.24767e-006 1.47042e-008 1.32732e-009
255
root  10.6164 39.0634 46.9005 -2.10303 -7.06281 -30.922
RightUpLeg  -48.6991 -3.09261 -27.5112
RightLeg  98.1221 2.63979 -12.7536
RightFoot  -7.86837 0.0984386 -4.99439
RightToes  -2.08645e-008 3.77894e-005 6.81332e-007
Spine  13.0632 0.0701368 2.41857
Spine1  7.10983 -4.65917 21.1999
HEad  -26.5273 20.562 -1.62476
LeftShoulder1  3.33923 -7.73856 -23.4647
LeftArm  -35.7591 -44.6953 -0.0879126
LeftForeArm  94.4622 -80.2356 -87.0884
LeftHand  -0.461754 -4.41955 5.74965
RightShoulder  3.7862 6.67165 31.315
RightArm  -18.5209 -34.7869 22.5335
RightForeArm  31.4187 -2.09484 6.08341
RightHand  -1.55794 8.00534 -13.7819
LeftUpLeg  -8.82128 -5.02264 15.6838
LeftLeg  31.9106 16.7195 11.2584
LeftFoot  -13.5048 0.221515 7.41751
LeftToes  1.24767e-006 1.47042e-008 1.32732e-009
256
root  10.3451 39.2906 46.8767 -9.82544 -3.95825 -32.298
RightUpLeg  -53.0127 -12.2295 -19.3481
RightLeg  84.4806 -0.845415 -17.0973
RightFoot  -10.8442 -0.0697783 -1.11956
RightToes  -2.08645e-008 3.77894e-005 6.81332e-007
Spine  17.8148 -1.16744 1.61472
Spine1  9.38221 -7.17947 24.4479
HEad  -20.6871 22.6624 -0.371536
LeftShoulder1  3.51311 -8.09988 -24.0698
LeftArm  -29.7899 -49.9624 -7.66076
LeftForeArm  73.0323 -79.3306 -66.4244
LeftHand  -0.542587 -4.98349 6.3745
RightShoulder  3.9528 6.79479 32.493
RightArm  -14.1659 -38.5479 22.4983
RightForeArm  38.3451 -0.0717467 7.13113
RightHand  -1.4423 9.28447 -11.7263
LeftUpLeg  -3.35149 -8.34603 16.8372
LeftLeg  34.5488 14.7153 10.9908
LeftFoot  -11.8986 0.100664 5.46115
LeftToes  1.24767e-006 1.47042e-008 1.32732e-009
257
root  9.98046 40.0703 47.1309 -14.2847 -2.50549 -30.9518
RightUpLeg  -59.8118 -18.7613 -10.9495
RightLeg  67.6126 -6.80246 -18.4218
RightFoot  -15.2545 -0.114051 -0.231957
RightToes  -2.08645e-008 3.77894e-005 6.81332e-007
Spine  18.0108 -2.08661 -1.41431
Spine1  11.3028 -9.18515 25.0216
HEad  -11.4421 25.8919 2.02364
LeftShoulder1  3.84093 -8.58202 -25.6482
LeftArm  -18.9416 -50.0853 -16.7287
LeftForeArm  63.8265 -78.3453 -56.281
LeftHand  -0.481275 -5.2229 5.5701
RightShoulder  4.2465 6.96914 34.6496
RightArm  -12.2936 -41.0058 21.3238
RightForeArm  41.7002 1.98223 7.77023
RightHand  -1.52671 9.66653 -12.0974
LeftUpLeg  1.09713 -6.00522 17.0968
LeftLeg  32.4487 10.3358 7.36963
LeftFoot  -7.17867 -0.125477 4.36327
LeftToes  1.24767e-006 1.47042e-008 1.32732e-009
258
root  9.64584 40.9914 47.5985 -17.8127 -1.55701 -28.2284
RightUpLeg  -64.1822 -17.5357 -7.9363
RightLeg  48.2492 -11.8631 -14.2185
RightFoot  -16.5595 -0.0610795 1.1028
RightToes  -2.08645e-008 3.77894e-005 6.81332e-007
Spine  17.4561 -3.40565 -3.30637
Spine1  12.6816 -10.1394 22.7256
HEad  -4.16771 29.9632 3.05608
LeftShoulder1  4.52387 -9.54457 -28.6302
LeftArm  -10.3311 -44.3507 -21.1998
LeftForeArm  75.9281 -79.4619 -65.8992
LeftHand  -0.275568 -5.4815 3.25607
RightShoulder  4.40493 7.0627 35.7737
RightArm  -16.7657 -40.6192 23.5068
RightForeArm  40.3852 -1.36436 6.50122
RightHand  -1.40094 8.40149 -12.1016
LeftUpLeg  5.89448 -2.71886 16.5266
LeftLeg  29.1281 5.44254 3.62553
LeftFoot  0.0615773 -0.359315 3.62043
LeftToes  1.24767e-006 1.47042e-008 1.32732e-009
259
root  9.37653 41.5792 48.14 -20.2939 1.54089 -26.4281
RightUpLeg  -65.7724 -14.2655 -11.0194
RightLeg  29.2453 -15.508 -9.41674
RightFoot  -15.5941 0.0531914 4.27778
RightToes  -2.08645e-008 3.77894e-005 6.81332e-007
Spine  17.8808 -5.35814 -3.58472
Spine1  11.6162 -11.1178 21.6696
HEad  -0.474517 33.5347 1.46446
LeftShoulder1  5.46394 -10.7601 -32.3128
LeftArm  -4.59218 -35.9714 -22.2672
LeftForeArm  101.115 -80.4979 -88.247
LeftHand  -0.0613735 -5.97954 0.957768
RightShoulder  4.41712 7.11769 35.6739
RightArm  -22.0557 -39.7384 26.4536
RightForeArm  38.2169 -5.88232 4.46448
RightHand  -1.25552 8.09497 -11.1258
LeftUpLeg  9.44333 -1.82773 16.0978
LeftLeg  26.0059 2.46883 1.64637
LeftFoot  1.96289 0.290877 -2.59701
LeftToes  1.24767e-006 1.47042e-008 1.32732e-009
260
root  9.08015 41.6928 48.7242 -21.2937 7.59656 -26.2148
RightUpLeg  -68.5564 -14.1636 -15.6747
RightLeg  17.6409 -16.1645 -5.85465
RightFoot  -15.123 0.153158 7.71821
RightToes  -2.08645e-008 3.77894e-005 6.81332e-007
Spine  17.9994 -7.27726 -3.54904
Spine1  8.84988 -12.2925 22.7009
HEad  -1.76031 34.4231 -1.87513
LeftShoulder1  6.09295 -11.5433 -34.4923
LeftArm  0.966742 -30.1053 -24.2756
LeftForeArm  116.264 -80.48 -100.608
LeftHand  -0.0171557 -5.97015 0.510292
RightShoulder  4.44325 7.2094 35.5629
RightArm  -23.7743 -40.3584 28.1898
RightForeArm  37.7006 -5.96607 3.89294
RightHand  -1.14854 9.06517 -9.56583
LeftUpLeg  10.1233 -0.943633 16.5156
LeftLeg  21.7152 2.69143 1.49896
LeftFoot  -2.08951 0.805215 -9.67388
LeftToes  1.24767e-006 1.47042e-008 1.32732e-009
261
root  8.69171 41.2223 49.0051 -24.47 15.5272 -28.0149
RightUpLeg  -70.7895 -15.9535 -19.3987
RightLeg  17.854 -15.9127 -5.84854
RightFoot  -15.1837 0.186007 8.60305
RightToes  -2.08645e-008 3.77894e-005 6.81332e-007
Spine  21.3075 -8.04316 -2.77742
Spine1  5.39496 -12.9098 24.6881
HEad  -8.77228 31.1057 -6.17034
LeftShoulder1  6.13239 -11.6902 -34.3555
LeftArm  8.41674 -29.5675 -28.3998
LeftForeArm  115.837 -80.5112 -99.8491
LeftHand  -0.183698 -5.51527 2.27025
RightShoulder  4.45324 7.25394 35.4855
RightArm  -22.1223 -43.2107 29.8947
RightForeArm  35.4577 -1.58696 5.33784
RightHand  -1.05714 9.05669 -8.84536
LeftUpLeg  9.59349 0.406693 17.2015
LeftLeg  19.2934 4.37893 2.01895
LeftFoot  -5.78265 0.293582 -5.06584
LeftToes  1.24767e-006 1.47042e-008 1.32732e-009
262
root  8.07948 40.2937 49.1182 -31.4861 24.2891 -31.36
RightUpLeg  -67.8165 -16.4211 -24.0417
RightLeg  21.0456 -19.1095 -8.12628
RightFoot  -15.5182 0.115052 6.04966
RightToes  -2.08645e-008 3.77894e-005 6.81332e-007
Spine  27.3033 -7.49231 -2.14501
Spine1  3.36769 -12.5679 26.5543
HEad  -19.3941 23.679 -9.19944
LeftShoulder1  6.34514 -12.0915 -34.6776
LeftArm  16.8631 -34.6629 -31.5227
LeftForeArm  110.284 -80.5311 -95.8143
LeftHand  -0.312703 -5.72499 3.58654
RightShoulder  4.51851 7.28321 35.9697
RightArm  -19.8148 -44.783 31.9376
RightForeArm  32.0499 3.42001 7.40219
RightHand  -1.0529 9.47854 -8.57609
LeftUpLeg  9.66827 -3.64416 16.187
LeftLeg  22.6887 7.18576 3.63584
LeftFoot  -9.44712 -0.0235614 5.72621
LeftToes  1.24767e-006 1.47042e-008 1.32732e-009
